HIERARCHY
ROOT Hips
{
	OFFSET 0.00000 0.00000 0.00000
	CHANNELS 6 Xposition Yposition Zposition Yrotation Zrotation Xrotation 
	JOINT Lumbar
	{
		OFFSET 0 0 0
		CHANNELS 3 Zrotation Xrotation Yrotation
		JOINT Neck
		{
			OFFSET 0.00 0.2701 0.00
			CHANNELS 3 Zrotation Xrotation Yrotation
			End Site
			{
				OFFSET 0.00 0.1379 0.00
			}
		}
		JOINT RightShoulder
		{
			OFFSET 0.0119 0.2289 0.1181
			CHANNELS 3 Zrotation Xrotation Yrotation
			JOINT RightElbow
			{
				OFFSET 0.00 -0.1475 0.00
				CHANNELS 2 Zrotation Yrotation
				JOINT RightWrist
				{
					OFFSET 0.00 -0.1605 0.00
					CHANNELS 2 Zrotation Xrotation
					End Site
					{
						OFFSET 0.0040 -0.1068 0.0006
					}
				}
			}
		}
		JOINT LeftShoulder
		{
			OFFSET 0.0119 0.2289 -0.1181
			CHANNELS 3 Zrotation Xrotation Yrotation
			JOINT LeftElbow
			{
				OFFSET 0.00 -0.1475 0.00
				CHANNELS 2 Zrotation Yrotation
				JOINT LeftWrist
				{
					OFFSET 0.00 -0.1605 0.00
					CHANNELS 2 Zrotation Xrotation
					End Site
					{
						OFFSET 0.0040 -0.1068 -0.0006
					}
				}
			}
		}
	}
	JOINT RightHip
	{
		OFFSET 0.0316 -0.0424 0.0458
		CHANNELS 3 Zrotation Xrotation Yrotation
		JOINT RightKnee
		{
			OFFSET 0.00 -0.2438 0.00
			CHANNELS 1 Zrotation
			JOINT RightAnkle
			{
				OFFSET 0.00 -0.2449 0.00
				CHANNELS 3 Zrotation Xrotation Yrotation
				End Site
				{
					OFFSET 0.1237 -0.0542 0.0051
				}
			}
		}
	}
	JOINT LeftHip
	{
		OFFSET 0.0316 -0.0424 -0.0458
		CHANNELS 3 Zrotation Xrotation Yrotation
		JOINT LeftKnee
		{
			OFFSET 0.00 -0.2438 0.00
			CHANNELS 1 Zrotation
			JOINT LeftAnkle
			{
				OFFSET 0.00 -0.2449 0.00
				CHANNELS 3 Zrotation Xrotation Yrotation
				End Site
				{
					OFFSET 0.1237 -0.0542 -0.0051
				}
			}
		}
	}
}
MOTION
Frames: 22
Frame Time: 0.02
1.14121 0.00666 0.81673 1108.93423 -34.08167 -6.17683 42.26653 7.07821 5.87292 -1.9719 -2.64087 -0.83079 -10.14435 -15.66243 -34.70312 19.70585 61.0827 -9.7039 4.60454 -44.04308 9.8517 -5.69746 76.3917 -118.01356 9.71575 -4.01602 28.21894 13.88972 -40.4052 -4.57483 5.54702 34.85785 16.79154 41.88958 20.58303 -5.29689 -58.42573 -8.87062 2.98737 2.29398
1.14765 0.00679 0.81375 1109.55343 -33.94809 -5.78662 41.98853 6.98429 6.45187 -2.24935 -2.83776 -0.83079 -9.93329 -16.40394 -32.51048 20.29026 60.68861 -9.75981 4.70896 -43.76816 10.61331 -6.55368 76.5742 -112.36149 8.26413 -3.20877 26.87271 13.9466 -40.77514 -3.72968 5.85918 35.97147 17.3404 44.09765 19.36449 -5.17837 -57.44517 -8.71807 3.34778 2.48576
1.154 0.00669 0.81057 1110.15945 -33.85046 -5.42769 41.77555 6.90074 7.0141 -2.58391 -3.05324 -0.83079 -9.82717 -17.11293 -30.39549 20.85651 60.25097 -9.79339 4.8314 -43.40399 11.63012 -7.65455 76.78336 -105.13511 6.617 -2.23725 25.85521 13.91391 -40.55606 -3.45381 5.55236 35.35463 17.02545 45.97662 17.93406 -5.16371 -55.29302 -8.66305 3.70136 2.68029
1.16041 0.00666 0.80745 1110.7745 -33.73972 -5.06326 41.53959 6.81416 7.56819 -2.89453 -3.25877 -0.83079 -9.68811 -17.83865 -28.1753 21.42961 59.98572 -9.78867 4.91315 -43.10239 12.48252 -8.5887 76.98215 -98.83412 5.11032 -1.40907 24.69664 13.92291 -40.61945 -2.93873 5.57419 35.55321 17.12128 47.9947 16.62796 -5.08018 -53.64257 -8.57392 4.03347 2.86106
1.16672 0.00675 0.80446 1111.38074 -33.61513 -4.65773 41.27591 6.71834 8.1859 -3.20228 -3.47297 -0.83079 -9.49668 -18.56937 -26.15736 22.02233 59.14255 -9.96226 5.1208 -42.71188 13.54094 -9.76 77.17594 -91.59442 3.36896 -0.29097 23.50512 13.92512 -40.63187 -2.34048 5.42056 35.68611 17.1691 50.04289 15.19714 -5.02549 -52.05909 -8.46072 4.40905 3.06416
1.17322 0.00656 0.80115 1111.9994 -33.52921 -4.34685 41.08632 6.64467 8.66856 -3.52586 -3.67313 -0.83079 -9.43601 -19.27349 -23.78257 22.56585 59.45118 -9.77426 5.07852 -42.48237 14.23278 -10.49765 77.3846 -85.96022 2.07505 0.27003 22.46021 13.92106 -40.60565 -2.05048 5.47374 35.52397 17.10066 51.95667 13.9808 -4.9543 -50.09039 -8.41286 4.71428 3.23235
1.18023 0.00571 0.79708 1112.6705 -33.5262 -4.29004 41.07407 6.63438 8.77871 -3.89822 -3.8238 -0.83079 -9.70489 -19.95404 -20.27531 22.96245 63.15205 -8.53019 4.29605 -42.73687 13.81974 -9.93871 77.64059 -85.0864 2.08077 -0.843 21.72979 13.92352 -40.62291 -2.47805 6.27606 34.95825 16.92222 53.56303 13.37629 -4.87799 -47.24076 -8.53044 4.84365 3.313
1.18744 0.0046 0.79268 1113.35116 -33.56332 -4.32789 41.13603 6.64546 8.75512 -4.28031 -3.96039 -0.83079 -10.10193 -20.60007 -16.44084 23.3109 67.97012 -6.93731 3.27087 -43.15264 13.03484 -8.94211 77.90857 -85.89361 2.54219 -2.50549 21.13637 13.9228 -40.61885 -3.19469 7.29891 34.14943 16.65259 55.04821 13.00108 -4.78025 -44.07087 -8.70684 4.90831 3.36125
1.19457 0.00359 0.78839 1114.01756 -33.592 -4.32284 41.17139 6.64414 8.79483 -4.64504 -4.10711 -0.83079 -10.4419 -21.23271 -12.8529 23.68933 72.13686 -5.54885 2.3879 -43.48294 12.43821 -8.16969 78.16184 -85.98472 2.78811 -3.85543 20.48713 13.92268 -40.6191 -3.7763 8.20131 33.45165 16.42075 56.60455 12.54299 -4.65736 -41.12334 -8.84694 5.00019 3.4224
1.20167 0.00265 0.78426 1114.72634 -33.58132 -4.31852 41.17923 6.6548 8.82099 -5.06697 -4.23895 -0.83079 -10.77836 -21.98596 -8.85682 24.03311 76.90553 -3.96694 1.37115 -43.86244 11.76559 -7.29589 78.45306 -85.84563 3.06615 -5.46601 19.82482 13.92298 -40.622 -4.39585 9.17146 32.69202 16.17453 58.09039 11.98894 -4.67895 -37.80964 -9.02825 5.09919 3.49019
1.20888 0.00151 0.77972 1115.34812 -33.66079 -4.33446 41.26082 6.64505 8.84669 -5.3707 -4.39799 -0.83079 -11.15418 -22.48169 -5.62784 24.43796 80.69083 -2.7036 0.57468 -44.17783 11.16411 -6.53025 78.67037 -86.57125 3.38338 -6.66485 19.2147 13.9228 -40.6216 -4.99426 10.05639 32.02602 15.94797 59.68715 11.69007 -4.39991 -35.19807 -9.14004 5.16923 3.53728
1.21637 -0.00013 0.77417 1115.73859 -33.98672 -4.38564 41.53085 6.57686 8.87823 -5.35073 -4.63696 -0.83079 -11.58079 -22.26116 -4.64249 25.02121 81.4447 -2.42312 0.4506 -44.28693 10.80846 -6.13182 78.65755 -89.58829 3.74133 -6.60778 18.74184 13.92287 -40.6223 -5.49038 10.69175 31.67962 15.79775 61.72038 12.05679 -3.24205 -34.61317 -9.01181 5.16943 3.52974
1.22397 -0.00197 0.7682 1116.0402 -34.40027 -4.45307 41.87182 6.48662 8.91792 -5.21056 -4.90343 -0.83079 -12.04701 -21.78519 -4.43353 25.66785 81.17822 -2.47234 0.55558 -44.32481 10.54274 -5.86227 78.57389 -93.37192 4.11684 -6.11645 18.31026 13.92285 -40.62223 -5.94771 11.22906 31.44234 15.67387 63.85236 12.66968 -1.79193 -34.75117 -8.81664 5.14379 3.50341
1.23154 -0.00373 0.76239 1116.37382 -34.76896 -4.51166 42.17783 6.40451 8.97185 -5.12137 -5.15629 -0.83079 -12.51186 -21.43542 -3.83711 26.28699 81.40713 -2.35886 0.55259 -44.38861 10.26306 -5.55902 78.53802 -96.59968 4.45517 -5.81325 17.84044 13.92288 -40.62243 -6.40194 11.78868 31.16487 15.54347 65.87487 13.16052 -0.51092 -34.55692 -8.67454 5.13423 3.48952
1.23903 -0.00546 0.75674 1116.73873 -35.16113 -4.58081 42.49729 6.33161 8.94887 -5.04658 -5.41336 -0.83079 -12.91088 -21.0423 -3.36854 26.89946 81.54197 -2.2867 0.55773 -44.48383 9.86093 -5.13982 78.43774 -100.74011 4.92829 -5.56354 17.45728 13.92288 -40.62262 -6.95283 12.45082 30.84532 15.38995 68.16556 13.70466 0.92316 -34.36265 -8.44179 5.10499 3.45873
1.2467 -0.00729 0.75063 1117.02276 -35.52372 -4.62919 42.80546 6.23341 9.08532 -4.91484 -5.66839 -0.83079 -13.45496 -20.67854 -2.83099 27.54082 81.61497 -2.21236 0.60323 -44.49631 9.73506 -4.9932 78.45335 -103.16622 5.12424 -5.09782 16.90233 13.92275 -40.62205 -7.29099 12.87173 30.6337 15.28761 69.92283 14.19018 2.1086 -34.34918 -8.3776 5.11031 3.4582
1.25488 -0.00945 0.74343 1117.058 -35.79076 -4.62805 43.05694 6.07589 9.69896 -4.64019 -5.91074 -0.83079 -14.38685 -20.46541 -1.83868 28.25208 81.77153 -2.04233 0.70767 -44.28376 10.39686 -5.61571 78.81877 -100.43755 4.50334 -4.09025 15.85963 13.92315 -40.62385 -7.04228 12.66064 30.76942 15.35804 70.18086 14.47918 2.52536 -34.61884 -8.82549 5.22777 3.55379
1.26323 -0.01169 0.73575 1117.02386 -36.02314 -4.60295 43.29548 5.89272 10.46619 -4.31509 -6.15003 -0.83079 -15.46287 -20.28996 -0.76449 28.98894 81.89638 -1.86094 0.84546 -43.99309 11.32854 -6.50228 79.30182 -95.99169 3.60978 -2.88685 14.64548 13.92252 -40.62091 -6.5862 12.205 30.99377 15.47067 69.89833 14.69447 2.68264 -35.05303 -9.43932 5.37942 3.67923
1.2715 -0.01385 0.72822 1117.05218 -36.26652 -4.5804 43.54527 5.71764 11.1382 -4.02296 -6.39125 -0.83079 -16.47474 -20.0922 0.22032 29.71127 82.02474 -1.69393 0.96684 -43.74543 12.10543 -7.23742 79.72157 -92.4777 2.86923 -1.80464 13.50749 13.92275 -40.62178 -6.2228 11.85645 31.1335 15.54211 69.86705 14.92603 2.96687 -35.44132 -9.95708 5.50874 3.78583
1.27981 -0.01621 0.72095 1116.94613 -36.53405 -4.593 43.77609 5.55637 11.9176 -3.68443 -6.6319 -0.83079 -17.48398 -19.90546 1.39366 30.45005 82.1568 -1.50428 1.10114 -43.46006 13.01326 -8.10545 80.17653 -88.3551 2.00524 -0.57305 12.36629 13.92441 -40.62944 -5.84344 11.53084 31.47821 15.71508 69.82114 15.2404 3.22745 -35.73902 -10.55992 5.66524 3.91368
1.28805 -0.01816 0.71304 1117.10549 -36.74065 -4.52732 44.04096 5.36115 12.50985 -3.43192 -6.87171 -0.83079 -18.53039 -19.71048 2.20992 31.15729 82.2961 -1.34857 1.21377 -43.24013 13.72093 -8.76283 80.5919 -85.07827 1.33521 0.39 11.20577 13.91899 -40.60452 -5.47538 11.08916 31.39789 15.67655 69.66903 15.3599 3.46655 -36.24719 -11.02563 5.7743 4.00503
1.29611 -0.01898 0.7035 1118.00807 -36.79718 -4.2442 44.4142 5.07355 12.54615 -3.4314 -7.11791 -0.83079 -19.65933 -19.46272 1.96567 31.79116 82.39295 -1.33984 1.25612 -43.18164 13.7296 -8.72857 80.82454 -84.58349 1.2523 0.54806 9.90404 13.92777 -40.64425 -4.95862 10.48975 30.28141 15.13075 69.41575 14.97294 3.75503 -37.36165 -11.07373 5.73801 3.98461
